#!OML:ASF E:\Mandelcareful walks\Project 1\Capture day 1\Session 1\Subject1.ASF
:FULLY-SPECIFIED
:DEGREES
405
root -17.7067 9.36718 2.20043 451.652 70.6282 415.792
lowerback 50.1381 -0.906136 -7.15268
upperback 8.06516 -3.86214 -5.27869
thorax -11.4969 -0.730541 -0.875426
lowerneck -28.7859 13.1473 11.2922
upperneck 23.3024 18.4232 -14.7012
head 15.6008 6.88 -3.67668
rclavicle -5.56597e-015 -4.34344e-014
rhumerus 12.1082 9.9137 -76.3797
rradius 60.8182
rwrist -13.8179
rhand -32.3428 -50.0432
rfingers 7.12502
rthumb -5.5797 -79.9498
lclavicle -5.56597e-015 -4.34344e-014
lhumerus 31.2022 -17.2005 44.0261
lradius 39.2354
lwrist 30.3646
lhand -30.5534 338.858
lfingers 7.12502
lthumb -3.8519 8.8025
rfemur -37.8125 -31.0934 -7.45562
rtibia 116.035
rfoot -24.2045 -13.2058
rtoes 19.3584
lfemur -68.6884 50.7342 -9.40387
ltibia 125.915
lfoot -9.52584 -17.1223
ltoes -28.8896
406
root -17.7684 9.39402 2.27015 455.276 70.4471 419.617
lowerback 50.4194 -0.864802 -7.49925
upperback 8.09675 -3.96115 -5.3714
thorax -11.4763 -0.734976 -0.788587
lowerneck -29.0612 12.8088 10.9735
upperneck 23.6192 18.1037 -14.6638
head 15.7105 6.69963 -3.69913
rclavicle 5.24792e-014 5.33737e-014
rhumerus 12.0269 9.21249 -76.2101
rradius 60.3584
rwrist -14.5111
rhand -32.6964 -49.8582
rfingers 7.12502
rthumb -5.92111 -79.7555
lclavicle 5.24792e-014 5.33737e-014
lhumerus 32.8912 -16.859 44.1612
lradius 38.4866
lwrist 29.1761
lhand -29.6446 339.699
lfingers 7.12502
lthumb -2.97425 9.6584
rfemur -37.4591 -32.2247 -7.7407
rtibia 116.278
rfoot -23.6731 -13.3664
rtoes 19.6256
lfemur -70.3875 50.9959 -10.4414
ltibia 125.165
lfoot -9.69454 -17.6903
ltoes -29.215
407
root -17.8202 9.42444 2.33821 458.43 70.2178 423.196
lowerback 51.0602 -0.724945 -8.04836
upperback 8.09039 -4.05503 -5.3492
thorax -11.5162 -0.724489 -0.499738
lowerneck -29.5857 12.5419 10.6225
upperneck 24.2047 17.9341 -14.6138
head 16.0172 6.55385 -3.67246
rclavicle -3.10104e-014 -1.80894e-014
rhumerus 12.0834 8.73508 -75.8932
rradius 60.0139
rwrist -15.4628
rhand -33.0622 -49.6306
rfingers 7.12502
rthumb -6.27427 -79.5177
lclavicle -3.10104e-014 -1.80894e-014
lhumerus 34.4538 -16.4489 44.4327
lradius 37.6646
lwrist 27.9287
lhand -28.7296 340.222
lfingers 7.12502
lthumb -2.09052 10.1916
rfemur -36.7152 -33.0709 -8.13578
rtibia 116.384
rfoot -23.1648 -13.3399
rtoes 20.0048
lfemur -71.2557 51.0996 -11.0428
ltibia 124.187
lfoot -9.99219 -18.168
ltoes -29.8672
408
root -17.8695 9.45514 2.40382 461.401 69.9197 426.53
lowerback 51.7478 -0.610218 -8.68514
upperback 7.9865 -4.25959 -5.35433
thorax -11.6598 -0.755185 -0.156821
lowerneck -29.3384 12.2793 10.5263
upperneck 23.6271 17.7136 -15.1602
head 15.7415 6.42822 -3.93578
rclavicle 1.74931e-014 2.85256e-014
rhumerus 12.0419 8.48143 -75.7275
rradius 59.8425
rwrist -16.5003
rhand -33.0749 -49.6724
rfingers 7.12502
rthumb -6.28651 -79.5591
lclavicle 1.74931e-014 2.85256e-014
lhumerus 35.6767 -16.0147 44.7177
lradius 36.9397
lwrist 26.6262
lhand -28.3252 340.76
lfingers 7.12502
lthumb -1.70004 10.7333
rfemur -35.9744 -33.955 -8.61153
rtibia 116.516
rfoot -22.7177 -13.3281
rtoes 20.5576
lfemur -72.4706 50.9959 -11.9745
ltibia 123.151
lfoot -10.1738 -18.1042
ltoes -31.0695
409
root -17.9249 9.47679 2.45867 464.312 69.7499 429.658
lowerback 51.9969 -0.491944 -9.10157
upperback 8.05393 -4.29585 -5.3959
thorax -11.5711 -0.734952 -0.0161317
lowerneck -29.6195 11.9049 10.0661
upperneck 23.5173 17.3472 -15.1789
head 15.6447 6.22831 -3.957
rclavicle 8.74653e-015 5.81445e-014
rhumerus 11.9394 7.81624 -75.6986
rradius 59.7556
rwrist -17.4334
rhand -33.0558 -49.8586
rfingers 7.12502
rthumb -6.26811 -79.7459
lclavicle 8.74653e-015 5.81445e-014
lhumerus 36.9944 -15.5523 45.4445
lradius 36.2995
lwrist 25.0489
lhand -28.2366 341.099
lfingers 7.12502
lthumb -1.61446 11.0729
rfemur -35.3809 -34.9507 -8.92293
rtibia 116.727
rfoot -22.6031 -13.0757
rtoes 21.072
lfemur -74.0321 50.8087 -12.9978
ltibia 122.138
lfoot -10.6351 -17.845
ltoes -33.5822
410
root -17.9808 9.4922 2.50295 466.793 69.6735 432.423
lowerback 52.3956 -0.378487 -9.46256
upperback 8.09831 -4.33125 -5.45088
thorax -11.5336 -0.711112 0.0785478
lowerneck -30.0973 11.5979 9.43795
upperneck 23.4884 17.1265 -15.1014
head 15.6181 6.07112 -3.86932
rclavicle -2.62396e-014 -9.83984e-015
rhumerus 11.8032 6.97519 -75.974
rradius 59.6634
rwrist -18.0277
rhand -33.0344 -50.4143
rfingers 7.12502
rthumb -6.24743 -80.3021
lclavicle -2.62396e-014 -9.83984e-015
lhumerus 38.3152 -15.0179 46.154
lradius 35.7028
lwrist 23.7801
lhand -27.7854 341.433
lfingers 7.12502
lthumb -1.17865 11.4094
rfemur -34.6973 -35.7583 -9.16138
rtibia 116.915
rfoot -22.7862 -12.4575
rtoes 21.3096
lfemur -75.0514 50.6625 -13.535
ltibia 121.1
lfoot -11.1679 -17.7733
ltoes -35.6804
411
root -18.0376 9.50374 2.53341 469.505 69.5494 435.462
lowerback 53.0223 -0.294114 -9.8284
upperback 7.95712 -4.45391 -5.39962
thorax -11.723 -0.718109 0.323207
lowerneck -30.1615 11.2716 8.88545
upperneck 23.3313 16.8897 -15.1184
head 15.4717 5.9303 -3.84266
rclavicle -9.54166e-015 4.87022e-015
rhumerus 11.8159 6.34543 -75.9787
rradius 59.2164
rwrist -18.7361
rhand -32.9418 -51.059
rfingers 7.12502
rthumb -6.15807 -80.9495
lclavicle -9.54166e-015 4.87022e-015
lhumerus 39.5266 -14.8269 46.3305
lradius 35.1716
lwrist 23.2835
lhand -27.5663 341.695
lfingers 7.12502
lthumb -0.967047 11.6728
rfemur -33.9209 -36.6884 -9.58142
rtibia 117.122
rfoot -22.5102 -12.2622
rtoes 21.2648
lfemur -75.8136 50.1612 -13.8575
ltibia 120.095
lfoot -11.235 -17.7465
ltoes -36.0656
